<?xml version="1.0" encoding="UTF-8"?>
<svg width="400" height="400" viewBox="0 0 400 400" version="1.1" xmlns="http://www.w3.org/2000/svg" xmlns:xlink="http://www.w3.org/1999/xlink">
 <path d="M0,155.88 l0,-311.77" fill="none" stroke="rgb(0,0,255)" stroke-width="1" transform="matrix(0.44721279658979884,-0.8944275904545494,-0.8944275904545494,-0.44721279658979884,200.0,200.0)"/>
 <path d="M127.28,-63.64 c70.29,35.15,70.29,92.13,0,127.28 c-70.29,35.15,-184.26,35.15,-254.56,0.0 c-70.29,-35.15,-70.29,-92.13,-0.0,-127.28 c70.29,-35.15,184.26,-35.15,254.56,-0.0 Z M127.28,-63.64" fill="none" stroke="rgb(0,191,0)" stroke-width="1" transform="matrix(0.44721279658979884,-0.8944275904545494,-0.8944275904545494,-0.44721279658979884,200.0,200.0)"/>
 <path d="M127.28,-63.64 c70.29,35.15,70.29,92.13,0,127.28 c-70.29,35.15,-184.26,35.15,-254.56,0.0 c-70.29,-35.15,-70.29,-92.13,-0.0,-127.28 c70.29,-35.15,184.26,-35.15,254.56,-0.0 Z M127.28,-63.64" fill="none" stroke="rgb(0,191,0)" stroke-width="1" transform="matrix(0.44721279658979884,-0.8944275904545494,-0.8944275904545494,-0.44721279658979884,200.0,200.0)"/>
 <path d="M0,155.88 c0,0,0,0,0,0 c0,0,0,0,0,0 c0,0,0,0,0,0 c0,0,0,0,0,0 Z M0,155.88" fill="none" stroke="rgb(0,191,0)" stroke-width="1" transform="matrix(0.44721279658979884,-0.8944275904545494,-0.8944275904545494,-0.44721279658979884,200.0,200.0)"/>
 <path d="M0,-155.88 c0,0,0,0,0,0 c0,0,0,0,0,0 c0,0,0,0,0,0 c0,0,0,0,0,0 Z M0,-155.88" fill="none" stroke="rgb(0,191,0)" stroke-width="1" transform="matrix(0.44721279658979884,-0.8944275904545494,-0.8944275904545494,-0.44721279658979884,200.0,200.0)"/>
 <path d="M127.28,-127.28 c70.29,70.29,70.29,184.26,0,254.56 c-70.29,70.29,-184.26,70.29,-254.56,0.0 c-70.29,-70.29,-70.29,-184.26,-0.0,-254.56 c70.29,-70.29,184.26,-70.29,254.56,-0.0 Z M127.28,-127.28" fill="none" stroke="rgb(255,0,0)" stroke-width="1" transform="matrix(0.44721279658979884,-0.8944275904545494,-0.8944275904545494,-0.44721279658979884,200.0,200.0)"/>
</svg>