<?xml version="1.0" encoding="UTF-8"?>
<svg width="400" height="400" viewBox="0 0 400 400" version="1.1" xmlns="http://www.w3.org/2000/svg" xmlns:xlink="http://www.w3.org/1999/xlink">
 <path d="M0,155.88 l0,-311.77" fill="none" stroke="rgb(0,0,255)" stroke-width="1" transform="matrix(1.0,0.0,0.0,-1.0,200.0,200.0)"/>
 <path d="M127.28,-63.64 c70.29,35.15,70.29,92.13,0,127.28 c-70.29,35.15,-184.26,35.15,-254.56,0.0 c-70.29,-35.15,-70.29,-92.13,-0.0,-127.28 c70.29,-35.15,184.26,-35.15,254.56,-0.0 Z M127.28,-63.64" fill="none" stroke="rgb(0,191,0)" stroke-width="1" transform="matrix(1.0,0.0,0.0,-1.0,200.0,200.0)"/>
 <path d="M127.28,-63.64 c70.29,35.15,70.29,92.13,0,127.28 c-70.29,35.15,-184.26,35.15,-254.56,0.0 c-70.29,-35.15,-70.29,-92.13,-0.0,-127.28 c70.29,-35.15,184.26,-35.15,254.56,-0.0 Z M127.28,-63.64" fill="none" stroke="rgb(0,191,0)" stroke-width="1" transform="matrix(1.0,0.0,0.0,-1.0,200.0,200.0)"/>
 <path d="M0,155.88 c0,0,0,0,0,0 c0,0,0,0,0,0 c0,0,0,0,0,0 c0,0,0,0,0,0 Z M0,155.88" fill="none" stroke="rgb(0,191,0)" stroke-width="1" transform="matrix(1.0,0.0,0.0,-1.0,200.0,200.0)"/>
 <path d="M0,-155.88 c0,0,0,0,0,0 c0,0,0,0,0,0 c0,0,0,0,0,0 c0,0,0,0,0,0 Z M0,-155.88" fill="none" stroke="rgb(0,191,0)" stroke-width="1" transform="matrix(1.0,0.0,0.0,-1.0,200.0,200.0)"/>
 <path d="M32.94,134.1 c18.19,9.1,18.19,23.85,0,32.94 c-18.19,9.1,-47.69,9.1,-65.88,0 c-18.19,-9.1,-18.19,-23.85,-0.0,-32.94 c18.19,-9.1,47.69,-9.1,65.88,0 Z M32.94,134.1" fill="none" stroke="rgb(0,191,0)" stroke-width="1" transform="matrix(1.0,0.0,0.0,-1.0,200.0,200.0)"/>
 <path d="M32.94,-167.04 c18.19,9.1,18.19,23.85,0,32.94 c-18.19,9.1,-47.69,9.1,-65.88,0 c-18.19,-9.1,-18.19,-23.85,-0.0,-32.94 c18.19,-9.1,47.69,-9.1,65.88,-0.0 Z M32.94,-167.04" fill="none" stroke="rgb(0,191,0)" stroke-width="1" transform="matrix(1.0,0.0,0.0,-1.0,200.0,200.0)"/>
 <path d="M63.64,103.18 c35.15,17.57,35.15,46.07,0,63.64 c-35.15,17.57,-92.13,17.57,-127.28,0 c-35.15,-17.57,-35.15,-46.07,-0.0,-63.64 c35.15,-17.57,92.13,-17.57,127.28,-0.0 Z M63.64,103.18" fill="none" stroke="rgb(0,191,0)" stroke-width="1" transform="matrix(1.0,0.0,0.0,-1.0,200.0,200.0)"/>
 <path d="M63.64,-166.82 c35.15,17.57,35.15,46.07,0,63.64 c-35.15,17.57,-92.13,17.57,-127.28,0.0 c-35.15,-17.57,-35.15,-46.07,-0.0,-63.64 c35.15,-17.57,92.13,-17.57,127.28,0 Z M63.64,-166.82" fill="none" stroke="rgb(0,191,0)" stroke-width="1" transform="matrix(1.0,0.0,0.0,-1.0,200.0,200.0)"/>
 <path d="M90.0,65.23 c49.71,24.85,49.71,65.15,0,90 c-49.71,24.85,-130.29,24.85,-180,0 c-49.71,-24.85,-49.71,-65.15,-0.0,-90 c49.71,-24.85,130.29,-24.85,180.0,0 Z M90.0,65.23" fill="none" stroke="rgb(0,191,0)" stroke-width="1" transform="matrix(1.0,0.0,0.0,-1.0,200.0,200.0)"/>
 <path d="M90.0,-155.23 c49.71,24.85,49.71,65.15,0,90 c-49.71,24.85,-130.29,24.85,-180,0 c-49.71,-24.85,-49.71,-65.15,-0.0,-90 c49.71,-24.85,130.29,-24.85,180.0,0 Z M90.0,-155.23" fill="none" stroke="rgb(0,191,0)" stroke-width="1" transform="matrix(1.0,0.0,0.0,-1.0,200.0,200.0)"/>
 <path d="M110.23,22.83 c60.88,30.44,60.88,79.79,0,110.23 c-60.88,30.44,-159.58,30.44,-220.45,0.0 c-60.88,-30.44,-60.88,-79.79,-0.0,-110.23 c60.88,-30.44,159.58,-30.44,220.45,-0.0 Z M110.23,22.83" fill="none" stroke="rgb(0,191,0)" stroke-width="1" transform="matrix(1.0,0.0,0.0,-1.0,200.0,200.0)"/>
 <path d="M110.23,-133.06 c60.88,30.44,60.88,79.79,0,110.23 c-60.88,30.44,-159.58,30.44,-220.45,0.0 c-60.88,-30.44,-60.88,-79.79,-0.0,-110.23 c60.88,-30.44,159.58,-30.44,220.45,-0.0 Z M110.23,-133.06" fill="none" stroke="rgb(0,191,0)" stroke-width="1" transform="matrix(1.0,0.0,0.0,-1.0,200.0,200.0)"/>
 <path d="M122.94,-21.13 c67.9,33.95,67.9,88.99,0,122.94 c-67.9,33.95,-177.99,33.95,-245.88,0.0 c-67.9,-33.95,-67.9,-88.99,-0.0,-122.94 c67.9,-33.95,177.99,-33.95,245.88,-0.0 Z M122.94,-21.13" fill="none" stroke="rgb(0,191,0)" stroke-width="1" transform="matrix(1.0,0.0,0.0,-1.0,200.0,200.0)"/>
 <path d="M122.94,-101.82 c67.9,33.95,67.9,88.99,0,122.94 c-67.9,33.95,-177.99,33.95,-245.88,0.0 c-67.9,-33.95,-67.9,-88.99,-0.0,-122.94 c67.9,-33.95,177.99,-33.95,245.88,-0.0 Z M122.94,-101.82" fill="none" stroke="rgb(0,191,0)" stroke-width="1" transform="matrix(1.0,0.0,0.0,-1.0,200.0,200.0)"/>
 <path d="M127.28,-127.28 c70.29,70.29,70.29,184.26,0,254.56 c-70.29,70.29,-184.26,70.29,-254.56,0.0 c-70.29,-70.29,-70.29,-184.26,-0.0,-254.56 c70.29,-70.29,184.26,-70.29,254.56,-0.0 Z M127.28,-127.28" fill="none" stroke="rgb(255,0,0)" stroke-width="1" transform="matrix(1.0,0.0,0.0,-1.0,200.0,200.0)"/>
</svg>