<?xml version="1.0" encoding="UTF-8"?>
<svg width="400" height="400" viewBox="0 0 400 400" version="1.1" xmlns="http://www.w3.org/2000/svg" xmlns:xlink="http://www.w3.org/1999/xlink">
 <path d="M0,115.7 l0,-231.4" fill="none" stroke="rgb(0,0,255)" stroke-width="1" transform="matrix(0.9659258262890683,-0.25881904510252074,-0.25881904510252074,-0.9659258262890683,200.0,200.0)"/>
 <path d="M127.28,-97.5 c70.29,53.85,70.29,141.15,0,195.0 c-70.29,53.85,-184.26,53.85,-254.56,0.0 c-70.29,-53.85,-70.29,-141.15,-0.0,-195.0 c70.29,-53.85,184.26,-53.85,254.56,-0.0 Z M127.28,-97.5" fill="none" stroke="rgb(0,191,0)" stroke-width="1" transform="matrix(0.9659258262890683,-0.25881904510252074,-0.25881904510252074,-0.9659258262890683,200.0,200.0)"/>
 <path d="M127.28,-97.5 c70.29,53.85,70.29,141.15,0,195.0 c-70.29,53.85,-184.26,53.85,-254.56,0.0 c-70.29,-53.85,-70.29,-141.15,-0.0,-195.0 c70.29,-53.85,184.26,-53.85,254.56,-0.0 Z M127.28,-97.5" fill="none" stroke="rgb(0,191,0)" stroke-width="1" transform="matrix(0.9659258262890683,-0.25881904510252074,-0.25881904510252074,-0.9659258262890683,200.0,200.0)"/>
 <path d="M0,115.7 c0,0,0,0,0,0 c0,0,0,0,0,0 c0,0,0,0,0,0 c0,0,0,0,0,0 Z M0,115.7" fill="none" stroke="rgb(0,191,0)" stroke-width="1" transform="matrix(0.9659258262890683,-0.25881904510252074,-0.25881904510252074,-0.9659258262890683,200.0,200.0)"/>
 <path d="M0,-115.7 c0,0,0,0,0,0 c0,0,0,0,0,0 c0,0,0,0,0,0 c0,0,0,0,0,0 Z M0,-115.7" fill="none" stroke="rgb(0,191,0)" stroke-width="1" transform="matrix(0.9659258262890683,-0.25881904510252074,-0.25881904510252074,-0.9659258262890683,200.0,200.0)"/>
 <path d="M63.64,51.45 c35.15,26.92,35.15,70.58,0,97.5 c-35.15,26.92,-92.13,26.92,-127.28,0 c-35.15,-26.92,-35.15,-70.58,-0.0,-97.5 c35.15,-26.92,92.13,-26.92,127.28,-0.0 Z M63.64,51.45" fill="none" stroke="rgb(0,191,0)" stroke-width="1" transform="matrix(0.9659258262890683,-0.25881904510252074,-0.25881904510252074,-0.9659258262890683,200.0,200.0)"/>
 <path d="M63.64,-148.95 c35.15,26.92,35.15,70.58,0,97.5 c-35.15,26.92,-92.13,26.92,-127.28,0.0 c-35.15,-26.92,-35.15,-70.58,-0.0,-97.5 c35.15,-26.92,92.13,-26.92,127.28,0 Z M63.64,-148.95" fill="none" stroke="rgb(0,191,0)" stroke-width="1" transform="matrix(0.9659258262890683,-0.25881904510252074,-0.25881904510252074,-0.9659258262890683,200.0,200.0)"/>
 <path d="M110.23,-26.59 c60.88,46.63,60.88,122.24,0,168.88 c-60.88,46.63,-159.58,46.63,-220.45,0.0 c-60.88,-46.63,-60.88,-122.24,-0.0,-168.88 c60.88,-46.63,159.58,-46.63,220.45,-0.0 Z M110.23,-26.59" fill="none" stroke="rgb(0,191,0)" stroke-width="1" transform="matrix(0.9659258262890683,-0.25881904510252074,-0.25881904510252074,-0.9659258262890683,200.0,200.0)"/>
 <path d="M110.23,-142.29 c60.88,46.63,60.88,122.24,0,168.88 c-60.88,46.63,-159.58,46.63,-220.45,0.0 c-60.88,-46.63,-60.88,-122.24,-0.0,-168.88 c60.88,-46.63,159.58,-46.63,220.45,-0.0 Z M110.23,-142.29" fill="none" stroke="rgb(0,191,0)" stroke-width="1" transform="matrix(0.9659258262890683,-0.25881904510252074,-0.25881904510252074,-0.9659258262890683,200.0,200.0)"/>
 <path d="M127.28,-127.28 c70.29,70.29,70.29,184.26,0,254.56 c-70.29,70.29,-184.26,70.29,-254.56,0.0 c-70.29,-70.29,-70.29,-184.26,-0.0,-254.56 c70.29,-70.29,184.26,-70.29,254.56,-0.0 Z M127.28,-127.28" fill="none" stroke="rgb(255,0,0)" stroke-width="1" transform="matrix(0.9659258262890683,-0.25881904510252074,-0.25881904510252074,-0.9659258262890683,200.0,200.0)"/>
</svg>