<?xml version="1.0" encoding="UTF-8"?>
<svg width="400" height="400" viewBox="0 0 400 400" version="1.1" xmlns="http://www.w3.org/2000/svg" xmlns:xlink="http://www.w3.org/1999/xlink">
 <path d="M0,173.87 l0,-347.73" fill="none" stroke="rgb(0,0,255)" stroke-width="1" transform="matrix(1.0,0.0,0.0,-1.0,200.0,200.0)"/>
 <path d="M127.28,-32.94 c70.29,18.19,70.29,47.69,0,65.88 c-70.29,18.19,-184.26,18.19,-254.56,0.0 c-70.29,-18.19,-70.29,-47.69,-0.0,-65.88 c70.29,-18.19,184.26,-18.19,254.56,-0.0 Z M127.28,-32.94" fill="none" stroke="rgb(0,191,0)" stroke-width="1" transform="matrix(1.0,0.0,0.0,-1.0,200.0,200.0)"/>
 <path d="M127.28,-32.94 c70.29,18.19,70.29,47.69,0,65.88 c-70.29,18.19,-184.26,18.19,-254.56,0.0 c-70.29,-18.19,-70.29,-47.69,-0.0,-65.88 c70.29,-18.19,184.26,-18.19,254.56,-0.0 Z M127.28,-32.94" fill="none" stroke="rgb(0,191,0)" stroke-width="1" transform="matrix(1.0,0.0,0.0,-1.0,200.0,200.0)"/>
 <path d="M0,173.87 c0,0,0,0,0,0 c0,0,0,0,0,0 c0,0,0,0,0,0 c0,0,0,0,0,0 Z M0,173.87" fill="none" stroke="rgb(0,191,0)" stroke-width="1" transform="matrix(1.0,0.0,0.0,-1.0,200.0,200.0)"/>
 <path d="M0,-173.87 c0,0,0,0,0,0 c0,0,0,0,0,0 c0,0,0,0,0,0 c0,0,0,0,0,0 Z M0,-173.87" fill="none" stroke="rgb(0,191,0)" stroke-width="1" transform="matrix(1.0,0.0,0.0,-1.0,200.0,200.0)"/>
 <path d="M16.61,168.08 c9.18,2.37,9.18,6.22,0,8.6 c-9.18,2.37,-24.05,2.37,-33.23,0 c-9.18,-2.37,-9.18,-6.22,-0.0,-8.6 c9.18,-2.37,24.05,-2.37,33.23,0 Z M16.61,168.08" fill="none" stroke="rgb(0,191,0)" stroke-width="1" transform="matrix(1.0,0.0,0.0,-1.0,200.0,200.0)"/>
 <path d="M16.61,-176.68 c9.18,2.37,9.18,6.22,0,8.6 c-9.18,2.37,-24.05,2.37,-33.23,0 c-9.18,-2.37,-9.18,-6.22,-0.0,-8.6 c9.18,-2.37,24.05,-2.37,33.23,0 Z M16.61,-176.68" fill="none" stroke="rgb(0,191,0)" stroke-width="1" transform="matrix(1.0,0.0,0.0,-1.0,200.0,200.0)"/>
 <path d="M32.94,159.42 c18.19,4.71,18.19,12.34,0,17.05 c-18.19,4.71,-47.69,4.71,-65.88,0 c-18.19,-4.71,-18.19,-12.34,-0.0,-17.05 c18.19,-4.71,47.69,-4.71,65.88,0 Z M32.94,159.42" fill="none" stroke="rgb(0,191,0)" stroke-width="1" transform="matrix(1.0,0.0,0.0,-1.0,200.0,200.0)"/>
 <path d="M32.94,-176.47 c18.19,4.71,18.19,12.34,0,17.05 c-18.19,4.71,-47.69,4.71,-65.88,0 c-18.19,-4.71,-18.19,-12.34,-0.0,-17.05 c18.19,-4.71,47.69,-4.71,65.88,0 Z M32.94,-176.47" fill="none" stroke="rgb(0,191,0)" stroke-width="1" transform="matrix(1.0,0.0,0.0,-1.0,200.0,200.0)"/>
 <path d="M48.71,148.03 c26.9,6.96,26.9,18.25,0,25.21 c-26.9,6.96,-70.51,6.96,-97.42,0 c-26.9,-6.96,-26.9,-18.25,-0.0,-25.21 c26.9,-6.96,70.51,-6.96,97.42,0 Z M48.71,148.03" fill="none" stroke="rgb(0,191,0)" stroke-width="1" transform="matrix(1.0,0.0,0.0,-1.0,200.0,200.0)"/>
 <path d="M48.71,-173.24 c26.9,6.96,26.9,18.25,0,25.21 c-26.9,6.96,-70.51,6.96,-97.42,0 c-26.9,-6.96,-26.9,-18.25,-0.0,-25.21 c26.9,-6.96,70.51,-6.96,97.42,0 Z M48.71,-173.24" fill="none" stroke="rgb(0,191,0)" stroke-width="1" transform="matrix(1.0,0.0,0.0,-1.0,200.0,200.0)"/>
 <path d="M63.64,134.1 c35.15,9.1,35.15,23.85,0,32.94 c-35.15,9.1,-92.13,9.1,-127.28,0 c-35.15,-9.1,-35.15,-23.85,-0.0,-32.94 c35.15,-9.1,92.13,-9.1,127.28,0 Z M63.64,134.1" fill="none" stroke="rgb(0,191,0)" stroke-width="1" transform="matrix(1.0,0.0,0.0,-1.0,200.0,200.0)"/>
 <path d="M63.64,-167.04 c35.15,9.1,35.15,23.85,0,32.94 c-35.15,9.1,-92.13,9.1,-127.28,0 c-35.15,-9.1,-35.15,-23.85,-0.0,-32.94 c35.15,-9.1,92.13,-9.1,127.28,0 Z M63.64,-167.04" fill="none" stroke="rgb(0,191,0)" stroke-width="1" transform="matrix(1.0,0.0,0.0,-1.0,200.0,200.0)"/>
 <path d="M77.48,117.88 c42.79,11.08,42.79,29.03,0,40.11 c-42.79,11.08,-112.17,11.08,-154.97,0 c-42.79,-11.08,-42.79,-29.03,-0.0,-40.11 c42.79,-11.08,112.17,-11.08,154.97,0 Z M77.48,117.88" fill="none" stroke="rgb(0,191,0)" stroke-width="1" transform="matrix(1.0,0.0,0.0,-1.0,200.0,200.0)"/>
 <path d="M77.48,-157.99 c42.79,11.08,42.79,29.03,0,40.11 c-42.79,11.08,-112.17,11.08,-154.97,0 c-42.79,-11.08,-42.79,-29.03,-0.0,-40.11 c42.79,-11.08,112.17,-11.08,154.97,0 Z M77.48,-157.99" fill="none" stroke="rgb(0,191,0)" stroke-width="1" transform="matrix(1.0,0.0,0.0,-1.0,200.0,200.0)"/>
 <path d="M90.0,99.65 c49.71,12.86,49.71,33.72,0,46.59 c-49.71,12.86,-130.29,12.86,-180,0 c-49.71,-12.86,-49.71,-33.72,-0.0,-46.59 c49.71,-12.86,130.29,-12.86,180.0,-0.0 Z M90.0,99.65" fill="none" stroke="rgb(0,191,0)" stroke-width="1" transform="matrix(1.0,0.0,0.0,-1.0,200.0,200.0)"/>
 <path d="M90.0,-146.24 c49.71,12.86,49.71,33.72,0,46.59 c-49.71,12.86,-130.29,12.86,-180,0.0 c-49.71,-12.86,-49.71,-33.72,-0.0,-46.59 c49.71,-12.86,130.29,-12.86,180.0,0 Z M90.0,-146.24" fill="none" stroke="rgb(0,191,0)" stroke-width="1" transform="matrix(1.0,0.0,0.0,-1.0,200.0,200.0)"/>
 <path d="M100.98,79.71 c55.77,14.43,55.77,37.84,0,52.27 c-55.77,14.43,-146.19,14.43,-201.95,0 c-55.77,-14.43,-55.77,-37.84,-0.0,-52.27 c55.77,-14.43,146.19,-14.43,201.95,0 Z M100.98,79.71" fill="none" stroke="rgb(0,191,0)" stroke-width="1" transform="matrix(1.0,0.0,0.0,-1.0,200.0,200.0)"/>
 <path d="M100.98,-131.98 c55.77,14.43,55.77,37.84,0,52.27 c-55.77,14.43,-146.19,14.43,-201.95,0 c-55.77,-14.43,-55.77,-37.84,-0.0,-52.27 c55.77,-14.43,146.19,-14.43,201.95,0 Z M100.98,-131.98" fill="none" stroke="rgb(0,191,0)" stroke-width="1" transform="matrix(1.0,0.0,0.0,-1.0,200.0,200.0)"/>
 <path d="M110.23,58.4 c60.88,15.76,60.88,41.3,0,57.06 c-60.88,15.76,-159.58,15.76,-220.45,0 c-60.88,-15.76,-60.88,-41.3,-0.0,-57.06 c60.88,-15.76,159.58,-15.76,220.45,-0.0 Z M110.23,58.4" fill="none" stroke="rgb(0,191,0)" stroke-width="1" transform="matrix(1.0,0.0,0.0,-1.0,200.0,200.0)"/>
 <path d="M110.23,-115.46 c60.88,15.76,60.88,41.3,0,57.06 c-60.88,15.76,-159.58,15.76,-220.45,0 c-60.88,-15.76,-60.88,-41.3,-0.0,-57.06 c60.88,-15.76,159.58,-15.76,220.45,0 Z M110.23,-115.46" fill="none" stroke="rgb(0,191,0)" stroke-width="1" transform="matrix(1.0,0.0,0.0,-1.0,200.0,200.0)"/>
 <path d="M117.59,36.1 c64.94,16.81,64.94,44.06,0,60.87 c-64.94,16.81,-170.24,16.81,-235.18,0 c-64.94,-16.81,-64.94,-44.06,-0.0,-60.87 c64.94,-16.81,170.24,-16.81,235.18,-0.0 Z M117.59,36.1" fill="none" stroke="rgb(0,191,0)" stroke-width="1" transform="matrix(1.0,0.0,0.0,-1.0,200.0,200.0)"/>
 <path d="M117.59,-96.97 c64.94,16.81,64.94,44.06,0,60.87 c-64.94,16.81,-170.24,16.81,-235.18,0 c-64.94,-16.81,-64.94,-44.06,-0.0,-60.87 c64.94,-16.81,170.24,-16.81,235.18,0 Z M117.59,-96.97" fill="none" stroke="rgb(0,191,0)" stroke-width="1" transform="matrix(1.0,0.0,0.0,-1.0,200.0,200.0)"/>
 <path d="M122.94,13.18 c67.9,17.57,67.9,46.07,0,63.64 c-67.9,17.57,-177.99,17.57,-245.88,0 c-67.9,-17.57,-67.9,-46.07,-0.0,-63.64 c67.9,-17.57,177.99,-17.57,245.88,-0.0 Z M122.94,13.18" fill="none" stroke="rgb(0,191,0)" stroke-width="1" transform="matrix(1.0,0.0,0.0,-1.0,200.0,200.0)"/>
 <path d="M122.94,-76.82 c67.9,17.57,67.9,46.07,0,63.64 c-67.9,17.57,-177.99,17.57,-245.88,0.0 c-67.9,-17.57,-67.9,-46.07,-0.0,-63.64 c67.9,-17.57,177.99,-17.57,245.88,-0.0 Z M122.94,-76.82" fill="none" stroke="rgb(0,191,0)" stroke-width="1" transform="matrix(1.0,0.0,0.0,-1.0,200.0,200.0)"/>
 <path d="M126.19,-9.97 c69.69,18.04,69.69,47.28,0,65.32 c-69.69,18.04,-182.69,18.04,-252.38,0 c-69.69,-18.04,-69.69,-47.28,-0.0,-65.32 c69.69,-18.04,182.69,-18.04,252.38,-0.0 Z M126.19,-9.97" fill="none" stroke="rgb(0,191,0)" stroke-width="1" transform="matrix(1.0,0.0,0.0,-1.0,200.0,200.0)"/>
 <path d="M126.19,-55.35 c69.69,18.04,69.69,47.28,0,65.32 c-69.69,18.04,-182.69,18.04,-252.38,0 c-69.69,-18.04,-69.69,-47.28,-0.0,-65.32 c69.69,-18.04,182.69,-18.04,252.38,-0.0 Z M126.19,-55.35" fill="none" stroke="rgb(0,191,0)" stroke-width="1" transform="matrix(1.0,0.0,0.0,-1.0,200.0,200.0)"/>
 <path d="M127.28,-127.28 c70.29,70.29,70.29,184.26,0,254.56 c-70.29,70.29,-184.26,70.29,-254.56,0.0 c-70.29,-70.29,-70.29,-184.26,-0.0,-254.56 c70.29,-70.29,184.26,-70.29,254.56,-0.0 Z M127.28,-127.28" fill="none" stroke="rgb(255,0,0)" stroke-width="1" transform="matrix(1.0,0.0,0.0,-1.0,200.0,200.0)"/>
</svg>